HIERARCHY
ROOT Hips
{
	OFFSET 0.00000 0.00000 0.00000
	CHANNELS 6 Xposition Yposition Zposition Zrotation Yrotation Xrotation 
	JOINT LHipJoint
	{
		OFFSET 0 0 0
		CHANNELS 3 Zrotation Yrotation Xrotation
		JOINT LeftHip
		{
			OFFSET 1.65412 -1.54119 0.76744
			CHANNELS 3 Zrotation Yrotation Xrotation
			JOINT LeftKnee
			{
				OFFSET 2.19550 -6.03209 0.00000
				CHANNELS 3 Zrotation Yrotation Xrotation
				JOINT LeftAnkle
				{
					OFFSET 2.38814 -6.56138 0.00000
					CHANNELS 3 Zrotation Yrotation Xrotation
					JOINT LeftToe
					{
						OFFSET 0.17337 -0.47632 1.75875
						CHANNELS 3 Zrotation Yrotation Xrotation
						End Site
						{
							OFFSET 0.00000 -0.00000 0.92050
						}
					}
				}
			}
		}
	}
	JOINT RHipJoint
	{
		OFFSET 0 0 0
		CHANNELS 3 Zrotation Yrotation Xrotation
		JOINT RightHip
		{
			OFFSET -1.40291 -1.54119 0.76744
			CHANNELS 3 Zrotation Yrotation Xrotation
			JOINT RightKnee
			{
				OFFSET -2.22156 -6.10370 0.00000
				CHANNELS 3 Zrotation Yrotation Xrotation
				JOINT RightAnkle
				{
					OFFSET -2.46840 -6.78188 0.00000
					CHANNELS 3 Zrotation Yrotation Xrotation
					JOINT RightToe
					{
						OFFSET -0.15659 -0.43024 1.84117
						CHANNELS 3 Zrotation Yrotation Xrotation
						End Site
						{
							OFFSET -0.00000 -0.00000 0.95587
						}
					}
				}
			}
		}
	}
	JOINT lowerback
	{
		OFFSET 0 0 0
		CHANNELS 3 Zrotation Yrotation Xrotation
		JOINT Chest
		{
			OFFSET -0.01936 1.82120 -0.32061
			CHANNELS 3 Zrotation Yrotation Xrotation
			JOINT Chest2
			{
				OFFSET -0.00532 1.85767 -0.00071
				CHANNELS 3 Zrotation Yrotation Xrotation
				JOINT lowerneck
				{
					OFFSET 0 0 0
					CHANNELS 3 Zrotation Yrotation Xrotation
					JOINT Neck
					{
						OFFSET -0.10687 1.58194 0.10810
						CHANNELS 3 Zrotation Yrotation Xrotation
						JOINT Head
						{
							OFFSET 0.15346 1.57382 -0.25612
							CHANNELS 3 Zrotation Yrotation Xrotation
							End Site
							{
								OFFSET 0.05334 1.61251 -0.10513
							}
						}
					}
				}
				JOINT LeftCollar
				{
					OFFSET 0 0 0
					CHANNELS 3 Zrotation Yrotation Xrotation
					JOINT LeftShoulder
					{
						OFFSET 2.85758 0.89498 -0.01485
CHANNELS 3 Zrotation Xrotation Yrotation
						JOINT LeftElbow
						{
OFFSET 0 -4.791850 -0.000000
CHANNELS 3 Zrotation Xrotation Yrotation
							JOINT LeftWrist
							{
OFFSET 0 -2.655530 0.000000
CHANNELS 3 Zrotation Xrotation Yrotation
								JOINT lhand
								{
									OFFSET 0 0 0
CHANNELS 3 Zrotation Xrotation Yrotation
									JOINT LFingers
									{
OFFSET 0 -0.743900 0.000000
CHANNELS 3 Zrotation Xrotation Yrotation
										End Site
										{
OFFSET 0 -0.599750 0.000000
										}
									}
								}
								JOINT LThumb
								{
OFFSET 0 0.000000 0.000000
CHANNELS 3 Zrotation Xrotation Yrotation
									End Site
									{
OFFSET 0 -0.608910 0.608910
									}
								}
							}
						}
					}
				}
				JOINT RightCollar
				{
					OFFSET 0 0 0
					CHANNELS 3 Zrotation Yrotation Xrotation
					JOINT RightShoulder
					{
						OFFSET -2.93906 0.88031 0.02490
CHANNELS 3 Zrotation Xrotation Yrotation
						JOINT RightElbow
						{
OFFSET 0 -4.772540 -0.000000
CHANNELS 3 Zrotation Xrotation Yrotation
							JOINT RightWrist
							{
OFFSET 0 -2.759950 -0.000000
CHANNELS 3 Zrotation Xrotation Yrotation
								JOINT rhand
								{
									OFFSET 0 0 0
CHANNELS 3 Zrotation Xrotation Yrotation
									JOINT RFingers
									{
OFFSET 0 -0.701620 0.000000
CHANNELS 3 Zrotation Xrotation Yrotation
										End Site
										{
OFFSET 0 -0.565660 0.000000
										}
									}
								}
								JOINT RThumb
								{
OFFSET 0 0.000000 0.000000
CHANNELS 3 Zrotation Xrotation Yrotation
									End Site
									{
OFFSET 0 -0.574300 0.574300
									}
								}
							}
						}
					}
				}
			}
		}
	}
}
MOTION
Frames: 5
Frame Time: 0.008333333333333333
0.120612 15.638282 -3.005062 1.800568 29.336687 15.944586 0.000000 0.000000 0.000000 -13.260491 -27.639299 -36.072502 1.874743 8.600086 24.552238 0.065359 -2.197989 6.158637 0.019260 -0.896714 -2.464604 0.000000 0.000000 0.000000 8.135749 10.944317 -35.861848 -4.822688 -13.181207 40.050810 0.525940 -21.058987 -25.601772 -0.160278 -2.579442 7.110050 10.525748 1.304794 28.555929 13.254251 6.327701 7.119176 6.353678 2.983820 -7.761654 -14.425703 -11.133108 0.287543 37.397985 -15.516487 -1.201385 14.202315 -7.703854 4.309065 0.000000 0.000000 0.000000 172.499544 -41.413915 81.692880 45.333865 -50.930824 22.497731 18.813920 -49.025211 -25.453927 0.000000 0.000000 0.000000 -7.125000 0.000000 0.000000 -11.883266 56.279094 3.320055 0.000000 0.000000 0.000000 -171.861183 -60.833627 -127.139526 -57.673735 -55.657389 -32.412814 -35.082870 -65.138360 -2.685989 0.000000 0.000000 0.000000 7.125000 0.000000 0.000000 -6.467099 26.686531 -2.890956
0.242673 15.654204 -3.018462 2.172018 26.803378 15.934150 0.000000 0.000000 0.000000 -14.247485 -26.671050 -35.663267 1.891041 8.635403 24.661349 0.052637 -1.503995 5.166504 0.017745 -0.857401 -2.356471 0.000000 0.000000 0.000000 6.966461 12.302226 -35.380829 -4.702290 -13.040444 39.520206 0.556579 -20.681571 -24.683209 -0.142149 -2.429527 6.694322 10.839307 1.085277 28.121351 13.489874 6.032883 7.228925 6.563876 2.845414 -7.425720 -14.149517 -10.605982 3.711520 37.875460 -13.901975 -4.791674 14.813404 -7.539885 2.226323 0.000000 0.000000 0.000000 173.732957 -41.946018 82.616847 43.748319 -50.140136 21.273564 17.619559 -48.170609 -25.709316 0.000000 0.000000 0.000000 -7.125000 0.000000 0.000000 -13.253170 56.287165 3.713540 0.000000 0.000000 0.000000 -173.209951 -61.408631 -129.499979 -56.889986 -55.422574 -31.766558 -35.465054 -64.544531 -2.785661 0.000000 0.000000 0.000000 7.125000 0.000000 0.000000 -6.746636 26.548537 -3.039564
0.355358 15.670001 -3.021595 2.630341 24.328158 15.807027 0.000000 0.000000 0.000000 -15.288636 -25.823698 -34.983390 1.890699 8.634597 24.658691 0.040196 -0.521823 4.015013 0.028093 -1.082470 -2.975743 0.000000 0.000000 0.000000 5.818433 13.590884 -34.903613 -4.616648 -12.938638 39.139268 0.664829 -20.632004 -23.553628 -0.056676 -1.536755 4.227149 10.914953 0.903533 27.927568 13.790489 5.777272 7.310307 6.944761 2.722141 -7.269448 -14.294903 -10.943689 2.290345 36.636161 -14.955128 -2.562076 14.037090 -7.724235 3.270343 0.000000 0.000000 0.000000 174.670095 -42.357458 83.383642 42.696520 -49.588796 20.469411 15.965381 -47.964257 -25.466987 0.000000 0.000000 0.000000 -7.125000 0.000000 0.000000 -14.827641 55.713034 3.960648 0.000000 0.000000 0.000000 -172.412198 -61.696318 -129.496545 -56.856619 -55.412436 -31.739098 -36.200127 -65.213382 -3.264818 0.000000 0.000000 0.000000 7.125000 0.000000 0.000000 -7.250532 25.926723 -3.376245
0.472537 15.683143 -3.007747 3.140070 21.897603 15.779942 0.000000 0.000000 0.000000 -16.513610 -24.684719 -34.386145 1.877595 8.606346 24.571494 0.028532 0.118106 3.148171 0.024592 -1.011632 -2.780757 0.000000 0.000000 0.000000 4.657291 14.697683 -34.356811 -4.480389 -12.773544 38.526717 0.662669 -20.217642 -22.813695 -0.015449 -0.800301 2.199433 11.127779 0.673376 27.591869 13.890423 5.451395 7.326560 7.061060 2.561593 -7.067968 -14.392570 -10.862352 3.220081 36.868003 -14.564740 -3.865014 14.274344 -7.730192 2.664123 0.000000 0.000000 0.000000 175.598855 -42.809856 83.950351 42.451201 -49.456930 20.282806 15.630545 -48.221951 -25.309151 0.000000 0.000000 0.000000 -7.125000 0.000000 0.000000 -15.085868 55.492097 3.950648 0.000000 0.000000 0.000000 -171.586030 -62.162465 -129.630430 -57.361163 -55.564676 -32.154831 -37.155642 -64.728645 -2.995002 0.000000 0.000000 0.000000 7.125000 0.000000 0.000000 -7.997548 26.209660 -3.676017
0.586313 15.705559 -2.984583 3.732096 19.317405 15.949184 0.000000 0.000000 0.000000 -17.814250 -23.248212 -34.056499 1.841788 8.528494 24.331240 0.018253 0.694976 2.400599 0.018661 -0.881595 -2.422962 0.000000 0.000000 0.000000 3.201890 16.210340 -34.099746 -4.338746 -12.598018 37.881900 0.758672 -20.222267 -21.784558 -0.001150 -0.197262 0.542039 11.090132 0.583640 27.170649 13.762724 5.256628 7.244948 7.460552 2.497365 -7.224000 -14.017375 -10.808287 4.503282 36.233342 -14.201439 -5.085383 14.076103 -7.751196 1.878836 0.000000 0.000000 0.000000 176.661426 -43.322925 84.740132 42.215395 -49.329030 20.103762 14.591965 -48.555300 -25.395898 0.000000 0.000000 0.000000 -7.125000 0.000000 0.000000 -16.184305 55.371658 4.200790 0.000000 0.000000 0.000000 -170.614848 -62.772026 -129.817315 -57.037319 -55.467338 -31.887909 -36.675820 -63.019855 -2.716260 0.000000 0.000000 0.000000 7.125000 0.000000 0.000000 -7.667908 26.578046 -3.455642
